<svg version="1.1" xmlns="http://www.w3.org/2000/svg" xmlns:xlink="http://www.w3.org/1999/xlink" viewBox="0 0 16 16">
  <rect y="1" fill="#78F7D8" width="16" height="13"/>
  <rect x="1" y="4" fill="#FFFFFF" width="1" height="1"/>
  <rect x="3" y="4" fill="#FFFFFF" width="1" height="1"/>
  <rect x="5" y="4" fill="#FFFFFF" width="1" height="1"/>
  <rect x="7" y="4" fill="#FFFFFF" width="1" height="1"/>
  <rect x="9" y="4" fill="#FFFFFF" width="1" height="1"/>
  <rect x="11" y="4" fill="#FFFFFF" width="1" height="1"/>
  <rect x="13" y="4" fill="#FFFFFF" width="1" height="1"/>
  <rect x="1" y="6" fill="#FFFFFF" width="1" height="1"/>
  <rect x="3" y="6" fill="#FFFFFF" width="1" height="1"/>
  <rect x="5" y="6" fill="#FFFFFF" width="1" height="1"/>
  <rect x="7" y="6" fill="#FFFFFF" width="1" height="1"/>
  <rect x="9" y="6" fill="#FFFFFF" width="1" height="1"/>
  <rect x="11" y="6" fill="#FFFFFF" width="1" height="1"/>
  <rect x="13" y="6" fill="#FFFFFF" width="1" height="1"/>
  <rect x="1" y="8" fill="#FFFFFF" width="1" height="1"/>
  <rect x="3" y="8" fill="#FFFFFF" width="1" height="1"/>
  <rect x="5" y="8" fill="#FFFFFF" width="1" height="1"/>
  <rect x="7" y="8" fill="#FFFFFF" width="1" height="1"/>
  <rect x="9" y="8" fill="#FFFFFF" width="1" height="1"/>
  <rect x="11" y="8" fill="#FFFFFF" width="1" height="1"/>
  <rect x="13" y="8" fill="#FFFFFF" width="1" height="1"/>
  <rect x="1" y="10" fill="#FFFFFF" width="1" height="1"/>
  <rect x="3" y="10" fill="#FFFFFF" width="1" height="1"/>
  <rect x="5" y="10" fill="#FFFFFF" width="1" height="1"/>
  <rect x="1" y="12" fill="#FFFFFF" width="1" height="1"/>
  <rect x="3" y="12" fill="#FFFFFF" width="1" height="1"/>
  <rect x="13" y="2" fill="#FFFFFF" width="1" height="1"/>
  <rect x="7" y="10" fill="#FFFFFF" width="1" height="1"/>
  <rect x="9" y="10" fill="#FFFFFF" width="1" height="1"/>
  <rect x="11" y="10" fill="#FFFFFF" width="1" height="1"/>
  <rect x="13" y="10" fill="#FFFFFF" width="1" height="1"/>
</svg>