<svg version="1.1" xmlns="http://www.w3.org/2000/svg" xmlns:xlink="http://www.w3.org/1999/xlink" viewBox="0 0 16 16">
<line fill="none" stroke="#000000" stroke-miterlimit="10" x1="1" y1="1.5" x2="15" y2="1.5"/>
<line fill="none" stroke="#000000" stroke-miterlimit="10" x1="1" y1="13.5" x2="15" y2="13.5"/>
<line fill="none" stroke="#000000" stroke-miterlimit="10" x1="0.5" y1="2" x2="0.5" y2="13"/>
<line fill="none" stroke="#000000" stroke-miterlimit="10" x1="15.5" y1="2" x2="15.5" y2="13"/>
<line fill="none" stroke="#D80404" stroke-miterlimit="10" x1="2.5" y1="3" x2="2.5" y2="12"/>
<line fill="none" stroke="#D80404" stroke-miterlimit="10" x1="2" y1="3.5" x2="4" y2="3.5"/>
<line fill="none" stroke="#D80404" stroke-miterlimit="10" x1="2" y1="7.5" x2="4" y2="7.5"/>
<line fill="none" stroke="#D80404" stroke-miterlimit="10" x1="2" y1="11.5" x2="4" y2="11.5"/>
<polygon fill="#D80404" points="8,12 7,12 5,3 6,3 "/>
<polygon fill="#D80404" points="5,12 6,12 8,3 7,3 "/>
<line fill="none" stroke="#D80404" stroke-miterlimit="10" x1="9.5" y1="3" x2="9.5" y2="12"/>
<line fill="none" stroke="#D80404" stroke-miterlimit="10" x1="11" y1="3.5" x2="14" y2="3.5"/>
<line fill="none" stroke="#D80404" stroke-miterlimit="10" x1="12.5" y1="3.5" x2="12.5" y2="12"/>
</svg>