<svg version="1.1" xmlns="http://www.w3.org/2000/svg" xmlns:xlink="http://www.w3.org/1999/xlink" viewBox="0 0 16 16">
<circle fill="#E7E7E7" cx="7.984" cy="7.984" r="7.987"/>
<g>
  <path fill-rule="evenodd" clip-rule="evenodd" d="M13.33,12.849c0,0.119,0,0.236,0,0.355c-0.182,0.938-0.733,1.508-1.591,1.77
    c-2.538,0-5.075,0-7.611,0c-3.032-1.24-0.679-5.771,1.15-6.639C3.557,6.049,4.613,2.289,6.694,1.344
    c3.845-1.741,6.177,4.099,3.982,7.081C12.07,9.392,13.119,10.704,13.33,12.849z M7.58,8.954c3.96,0.561,4.028-7.601,0-6.9
    C4.563,2.578,4.629,8.538,7.58,8.954z M3.685,13.647c0.487,0.723,2.912,0.439,4.16,0.439c1.358,0,3.79,0.352,4.336-0.354
    c0.571-0.738-0.035-2.25-0.354-2.83c-0.495-0.9-1.09-1.301-1.77-1.77c-1.004,0.936-3.164,0.977-4.159,0
    C4.91,9.472,2.744,12.241,3.685,13.647z"/>
  <path fill-rule="evenodd" clip-rule="evenodd" fill="#FFFFFF" d="M7.58,2.054c4.028-0.701,3.96,7.461,0,6.9
    C4.629,8.538,4.563,2.578,7.58,2.054z"/>
  <path fill-rule="evenodd" clip-rule="evenodd" fill="#FFFFFF" d="M5.897,9.134c0.995,0.977,3.155,0.936,4.159,0
    c0.68,0.469,1.274,0.869,1.77,1.77c0.319,0.58,0.926,2.092,0.354,2.83c-0.546,0.705-2.978,0.354-4.336,0.354
    c-1.248,0-3.673,0.283-4.16-0.439C2.744,12.241,4.91,9.472,5.897,9.134z"/>
</g>
</svg>