<svg version="1.1" xmlns="http://www.w3.org/2000/svg" xmlns:xlink="http://www.w3.org/1999/xlink" viewBox="0 0 16 16"><rect x="0.5" y="1.5" fill="none" stroke="#000000" stroke-miterlimit="10" width="15" height="14"/><line fill="none" stroke="#ffffff" stroke-width="0.5" stroke-miterlimit="10" x1="1" y1="3.25" x2="15" y2="3.25"/><line fill="none" stroke="#ffffff" stroke-width="0.5" stroke-miterlimit="10" x1="1" y1="4.75" x2="15" y2="4.75"/><line fill="none" stroke="#ffffff" stroke-width="0.5" stroke-miterlimit="10" x1="4.25" y1="2" x2="4.25" y2="3"/><line fill="none" stroke="#ffffff" stroke-width="0.5" stroke-miterlimit="10" x1="7.75" y1="2" x2="7.75" y2="3"/><line fill="none" stroke="#ffffff" stroke-width="0.5" stroke-miterlimit="10" x1="11.25" y1="2" x2="11.25" y2="3"/><line fill="none" stroke="#ffffff" stroke-width="0.5" stroke-miterlimit="10" x1="14.75" y1="2" x2="14.75" y2="3"/><line fill="none" stroke="#ffffff" stroke-width="0.5" stroke-miterlimit="10" x1="2.5" y1="3.5" x2="2.5" y2="4.5"/><line fill="none" stroke="#ffffff" stroke-width="0.5" stroke-miterlimit="10" x1="6" y1="3.5" x2="6" y2="4.5"/><line fill="none" stroke="#ffffff" stroke-width="0.5" stroke-miterlimit="10" x1="9.5" y1="3.5" x2="9.5" y2="4.5"/><line fill="none" stroke="#ffffff" stroke-width="0.5" stroke-miterlimit="10" x1="13" y1="3.5" x2="13" y2="4.5"/><line fill="none" stroke="#ffffff" stroke-width="0.5" stroke-miterlimit="10" x1="1" y1="6.25" x2="15" y2="6.25"/><line fill="none" stroke="#ffffff" stroke-width="0.5" stroke-miterlimit="10" x1="1" y1="7.75" x2="15" y2="7.75"/><line fill="none" stroke="#ffffff" stroke-width="0.5" stroke-miterlimit="10" x1="4.25" y1="5" x2="4.25" y2="6"/><line fill="none" stroke="#ffffff" stroke-width="0.5" stroke-miterlimit="10" x1="7.75" y1="5" x2="7.75" y2="6"/><line fill="none" stroke="#ffffff" stroke-width="0.5" stroke-miterlimit="10" x1="11.25" y1="5" x2="11.25" y2="6"/><line fill="none" stroke="#ffffff" stroke-width="0.5" stroke-miterlimit="10" x1="14.75" y1="5" x2="14.75" y2="6"/><line fill="none" stroke="#ffffff" stroke-width="0.5" stroke-miterlimit="10" x1="2.5" y1="6.5" x2="2.5" y2="7.5"/><line fill="none" stroke="#ffffff" stroke-width="0.5" stroke-miterlimit="10" x1="6" y1="6.5" x2="6" y2="7.5"/><line fill="none" stroke="#ffffff" stroke-width="0.5" stroke-miterlimit="10" x1="9.5" y1="6.5" x2="9.5" y2="7.5"/><line fill="none" stroke="#ffffff" stroke-width="0.5" stroke-miterlimit="10" x1="13" y1="6.5" x2="13" y2="7.5"/><line fill="none" stroke="#ffffff" stroke-width="0.5" stroke-miterlimit="10" x1="1" y1="9.25" x2="15" y2="9.25"/><line fill="none" stroke="#ffffff" stroke-width="0.5" stroke-miterlimit="10" x1="1" y1="10.75" x2="15" y2="10.75"/><line fill="none" stroke="#ffffff" stroke-width="0.5" stroke-miterlimit="10" x1="4.25" y1="8" x2="4.25" y2="9"/><line fill="none" stroke="#ffffff" stroke-width="0.5" stroke-miterlimit="10" x1="7.75" y1="8" x2="7.75" y2="9"/><line fill="none" stroke="#ffffff" stroke-width="0.5" stroke-miterlimit="10" x1="11.25" y1="8" x2="11.25" y2="9"/><line fill="none" stroke="#ffffff" stroke-width="0.5" stroke-miterlimit="10" x1="14.75" y1="8" x2="14.75" y2="9"/><line fill="none" stroke="#ffffff" stroke-width="0.5" stroke-miterlimit="10" x1="2.5" y1="9.5" x2="2.5" y2="10.5"/><line fill="none" stroke="#ffffff" stroke-width="0.5" stroke-miterlimit="10" x1="6" y1="9.5" x2="6" y2="10.5"/><line fill="none" stroke="#ffffff" stroke-width="0.5" stroke-miterlimit="10" x1="9.5" y1="9.5" x2="9.5" y2="10.5"/><line fill="none" stroke="#ffffff" stroke-width="0.5" stroke-miterlimit="10" x1="13" y1="9.5" x2="13" y2="10.5"/><line fill="none" stroke="#ffffff" stroke-width="0.5" stroke-miterlimit="10" x1="1" y1="12.25" x2="15" y2="12.25"/><line fill="none" stroke="#ffffff" stroke-width="0.5" stroke-miterlimit="10" x1="1" y1="13.75" x2="15" y2="13.75"/><line fill="none" stroke="#ffffff" stroke-width="0.5" stroke-miterlimit="10" x1="4.25" y1="11" x2="4.25" y2="12"/><line fill="none" stroke="#ffffff" stroke-width="0.5" stroke-miterlimit="10" x1="7.75" y1="11" x2="7.75" y2="12"/><line fill="none" stroke="#ffffff" stroke-width="0.5" stroke-miterlimit="10" x1="11.25" y1="11" x2="11.25" y2="12"/><line fill="none" stroke="#ffffff" stroke-width="0.5" stroke-miterlimit="10" x1="14.75" y1="11" x2="14.75" y2="12"/><line fill="none" stroke="#ffffff" stroke-width="0.5" stroke-miterlimit="10" x1="2.5" y1="12.5" x2="2.5" y2="13.5"/><line fill="none" stroke="#ffffff" stroke-width="0.5" stroke-miterlimit="10" x1="6" y1="12.5" x2="6" y2="13.5"/><line fill="none" stroke="#ffffff" stroke-width="0.5" stroke-miterlimit="10" x1="9.5" y1="12.5" x2="9.5" y2="13.5"/><line fill="none" stroke="#ffffff" stroke-width="0.5" stroke-miterlimit="10" x1="13" y1="12.5" x2="13" y2="13.5"/><line fill="none" stroke="#ffffff" stroke-width="0.5" stroke-miterlimit="10" x1="4.25" y1="14" x2="4.25" y2="15"/><line fill="none" stroke="#ffffff" stroke-width="0.5" stroke-miterlimit="10" x1="7.75" y1="14" x2="7.75" y2="15"/><line fill="none" stroke="#ffffff" stroke-width="0.5" stroke-miterlimit="10" x1="11.25" y1="14" x2="11.25" y2="15"/><line fill="none" stroke="#ffffff" stroke-width="0.5" stroke-miterlimit="10" x1="14.75" y1="14" x2="14.75" y2="15"/><polyline fill="#000" stroke="#000" stroke-miterlimit="10" points="9.5,15 9.5,9 6.5,9 6.5,15 "/></svg>