<svg version="1.1" xmlns="http://www.w3.org/2000/svg" xmlns:xlink="http://www.w3.org/1999/xlink" viewBox="0 0 16 16">
<circle fill="#E7E7E7" cx="7.984" cy="7.984" r="7.987"/>
<polygon points="4.5,2.5 6.5,2.5 6.5,3.5 7.5,3.5 7.5,12.5 6.5,12.5 6.5,13.5 4.5,13.5 4.5,14.5 6.5,14.5 6.5,13.5 7.5,13.5
  7.5,12.5 8.5,12.5 8.516,13.5 9.5,13.5 9.5,14.5 11.5,14.5 11.5,13.5 9.5,13.5 9.5,12.5 8.5,12.5 8.5,3.5 9.5,3.5 9.5,2.5 11.5,2.5
  11.5,1.5 9.5,1.5 9.5,2.5 8.5,2.5 8.5,3.5 7.5,3.5 7.5,2.5 6.5,2.5 6.5,1.5 4.5,1.5 "/>
  </svg>