<svg version="1.1" xmlns="http://www.w3.org/2000/svg" xmlns:xlink="http://www.w3.org/1999/xlink" viewBox="0 0 16 16">
  <linearGradient id="SVGID_1_" gradientUnits="userSpaceOnUse" x1="185.9844" y1="-266.9702" x2="185.9844" y2="-250.9971" gradientTransform="matrix(1 0 0 -1 -178 -251)">
  <stop  offset="0" style="stop-color:#747474"/>
  <stop  offset="0.4479" style="stop-color:#CCCCCC"/>
  <stop  offset="0.4969" style="stop-color:#FFFFFF"/>
  <stop  offset="0.5521" style="stop-color:#D0D0D0"/>
  <stop  offset="1" style="stop-color:#747474"/>
</linearGradient>
<circle fill="url(#SVGID_1_)" cx="7.984" cy="7.984" r="7.987"/>
<circle cx="7.985" cy="7.984" r="7.177"/>
<circle fill="#3C3C3C" cx="7.984" cy="7.984" r="5.941"/>
<circle fill="#181818" cx="7.984" cy="7.984" r="5.565"/>
<circle fill="#5B5B5B" cx="7.985" cy="7.984" r="2.829"/>
<circle fill="#151513" cx="7.985" cy="7.984" r="2.4"/>
<circle fill="#151513" cx="7.984" cy="7.984" r="2.205"/>
<circle fill="#5B5B5B" cx="7.985" cy="7.984" r="2.142"/>
<circle fill="#232323" cx="7.985" cy="7.984" r="1.963"/>
<circle fill="#34373A" cx="7.984" cy="7.984" r="1.409"/>
<circle fill="#5B5B5B" cx="7.985" cy="7.984" r="0.44"/>
<path opacity="0.48" fill="#90ACA9" d="M8.925,3.37L8.349,2.691c-2.261,0.145-4.89,1.655-5.52,4.499l0.524,0.617
  C4.282,5.122,6.563,3.453,8.925,3.37z"/>
<path opacity="0.48" fill="#90ACA9" d="M13.104,8.294l0.576,0.679c-0.509,2.208-2.428,4.554-5.336,4.715l-0.523-0.616
  C10.621,12.59,12.64,10.61,13.104,8.294z"/>
<path opacity="0.48" fill="#C1AB4D" d="M8.313,4.399L8.062,4.102C5.737,4.397,4.977,5.165,4.106,7.459l0.096,0.113
  C5.256,5.658,6.439,4.798,8.313,4.399z"/>
<path opacity="0.48" fill="#C1AB4D" d="M11.79,8.548l0.252,0.297c-0.672,2.247-1.552,2.872-3.958,3.359l-0.096-0.113
  C10.05,11.363,11.091,10.331,11.79,8.548z"/>
<path opacity="0.48" fill="#AEBACC" d="M8.371,5.364L8.053,4.99C6.806,5.07,5.355,5.904,5.009,7.473l0.289,0.339
  C5.809,6.332,7.068,5.411,8.371,5.364z"/>
<path opacity="0.48" fill="#AEBACC" d="M10.831,8.082l0.317,0.374c-0.28,1.219-1.338,2.514-2.941,2.602l-0.289-0.341
  C9.463,10.453,10.575,9.358,10.831,8.082z"/>
<path opacity="0.7" fill="#B4B9B9" d="M8.175,7.451C7.898,7.613,7.688,7.804,7.443,8.073C7.432,7.794,7.843,7.363,8.175,7.451z"/>
<path opacity="0.7" fill="#B4B9B9" d="M8.598,8C8.393,8.247,8.171,8.424,7.865,8.622C8.139,8.679,8.63,8.341,8.598,8z"/>
<path opacity="0.75" fill="#FFFFFF" d="M11.723,9.585l0.915,1.103c-0.465,1.291-1.257,2.008-3.039,2.495L8.64,12.063
  C10.431,11.885,11.062,10.917,11.723,9.585z"/>
<path opacity="0.75" fill="#FFFFFF" d="M6.883,7.874L6.509,7.423c0.19-0.528,0.514-0.821,1.244-1.021L8.145,6.86
  C7.412,6.933,7.153,7.329,6.883,7.874z"/>
</svg>