<svg version="1.1" xmlns="http://www.w3.org/2000/svg" xmlns:xlink="http://www.w3.org/1999/xlink" viewBox="0 0 33 33">
  <rect fill="#FFFFFF" width="33" height="33"/>
  <rect x="1" y="1" fill="#ebf4f4" width="7" height="3"/>
  <rect x="9" y="1" fill="#ebf4f4" width="7" height="3"/>
  <rect x="17" y="1" fill="#ebf4f4" width="7" height="3"/>
  <rect x="25" y="1" fill="#ebf4f4" width="7" height="3"/>
  <rect x="1" y="29" fill="#ebf4f4" width="7" height="3"/>
  <rect x="9" y="29" fill="#ebf4f4" width="7" height="3"/>
  <rect x="17" y="29" fill="#ebf4f4" width="7" height="3"/>
  <rect x="5" y="21" fill="#ebf4f4" width="7" height="7"/>
  <rect x="13" y="21" fill="#ebf4f4" width="7" height="7"/>
  <rect x="21" y="21" fill="#ebf4f4" width="7" height="7"/>
  <rect x="29" y="21" fill="#ebf4f4" width="3" height="7"/>
  <rect x="1" y="21" fill="#ebf4f4" width="3" height="7"/>
  <rect x="5" y="5" fill="#ebf4f4" width="7" height="7"/>
  <rect x="13" y="5" fill="#ebf4f4" width="7" height="7"/>
  <rect x="21" y="5" fill="#ebf4f4" width="7" height="7"/>
  <rect x="29" y="5" fill="#ebf4f4" width="3" height="7"/>
  <rect x="1" y="5" fill="#ebf4f4" width="3" height="7"/>
  <rect x="25" y="29" fill="#ebf4f4" width="7" height="3"/>
  <rect x="1" y="13" fill="#ebf4f4" width="7" height="7"/>
  <rect x="9" y="13" fill="#ebf4f4" width="7" height="7"/>
  <rect x="17" y="13" fill="#ebf4f4" width="7" height="7"/>
  <rect x="25" y="13" fill="#ebf4f4" width="7" height="7"/>
</svg>