<svg version="1.1" xmlns="http://www.w3.org/2000/svg" xmlns:xlink="http://www.w3.org/1999/xlink" viewBox="0 0 33 33">
  <rect fill="#FFFFFF" width="33" height="33"/>
<rect x="1" y="1" fill="#CBDADA" width="7" height="3"/>
<rect x="9" y="1" fill="#CBDADA" width="7" height="3"/>
<rect x="17" y="1" fill="#CBDADA" width="7" height="3"/>
<rect x="25" y="1" fill="#CBDADA" width="7" height="3"/>
<rect x="1" y="29" fill="#CBDADA" width="7" height="3"/>
<rect x="9" y="29" fill="#CBDADA" width="7" height="3"/>
<rect x="17" y="29" fill="#CBDADA" width="7" height="3"/>
<rect x="5" y="21" fill="#CBDADA" width="7" height="7"/>
<rect x="13" y="21" fill="#CBDADA" width="7" height="7"/>
<rect x="21" y="21" fill="#CBDADA" width="7" height="7"/>
<rect x="29" y="21" fill="#CBDADA" width="3" height="7"/>
<rect x="1" y="21" fill="#CBDADA" width="3" height="7"/>
<rect x="5" y="5" fill="#CBDADA" width="7" height="7"/>
<rect x="13" y="5" fill="#CBDADA" width="7" height="7"/>
<rect x="21" y="5" fill="#CBDADA" width="7" height="7"/>
<rect x="29" y="5" fill="#CBDADA" width="3" height="7"/>
<rect x="1" y="5" fill="#CBDADA" width="3" height="7"/>
<rect x="25" y="29" fill="#CBDADA" width="7" height="3"/>
<rect x="1" y="13" fill="#CBDADA" width="7" height="7"/>
<rect x="9" y="13" fill="#CBDADA" width="7" height="7"/>
<rect x="17" y="13" fill="#CBDADA" width="7" height="7"/>
<rect x="25" y="13" fill="#CBDADA" width="7" height="7"/>
<line fill="none" stroke="#000000" stroke-miterlimit="10" x1="1.5" y1="13" x2="1.5" y2="20"/>
<line fill="none" stroke="#000000" stroke-miterlimit="10" x1="2" y1="19.5" x2="7" y2="19.5"/>
<line fill="none" stroke="#000000" stroke-miterlimit="10" x1="12.5" y1="13" x2="12.5" y2="20"/>
<line fill="none" stroke="#000000" stroke-miterlimit="10" x1="17.5" y1="13" x2="17.5" y2="20"/>
<line fill="none" stroke="#000000" stroke-miterlimit="10" x1="18" y1="13.5" x2="23" y2="13.5"/>
<line fill="none" stroke="#000000" stroke-miterlimit="10" x1="23.5" y1="13" x2="23.5" y2="20"/>
<line fill="none" stroke="#000000" stroke-miterlimit="10" x1="20.5" y1="14" x2="20.5" y2="17"/>
<line fill="none" stroke="#000000" stroke-miterlimit="10" x1="32" y1="13.5" x2="25" y2="13.5"/>
<line fill="none" stroke="#000000" stroke-miterlimit="10" x1="25.5" y1="14" x2="25.5" y2="20"/>
<line fill="none" stroke="#000000" stroke-miterlimit="10" x1="26" y1="19.5" x2="32" y2="19.5"/>
<line fill="none" stroke="#000000" stroke-miterlimit="10" x1="26" y1="16.5" x2="29" y2="16.5"/>
<line fill="none" stroke="#000000" stroke-miterlimit="10" x1="10" y1="13.5" x2="15" y2="13.5"/>
<line fill="none" stroke="#000000" stroke-miterlimit="10" x1="10" y1="19.5" x2="15" y2="19.5"/>
</svg>