<svg version="1.1" xmlns="http://www.w3.org/2000/svg" xmlns:xlink="http://www.w3.org/1999/xlink" viewBox="0 0 16 16">
<circle fill="#e2e2e2" cx="8" cy="8" r="8"/>

<path fill="#ffe600" d="M15,8c0,1.934-0.783,3.684-2.05,4.95l-9.898,0.001l-0.003-9.9C4.315,1.784,6.066,1,8,1
  C11.866,1,15,4.134,15,8z"/>
<path fill="#d3a56e" d="M12.875,7.312c-1.416,1.907-0.75,3.781,0.075,5.638l-9.898,0.001l-0.003-9.9
  C4.667,3.917,6.829,4.25,8.64,3.312C8.598,5.167,10.562,7.417,12.875,7.312z"/>
<path fill="#3c3e44" d="M7.049,12.951c0-2.209-1.79-4-4-4v4H7.049z"/>
</svg>
