<svg version="1.1" xmlns="http://www.w3.org/2000/svg" xmlns:xlink="http://www.w3.org/1999/xlink" viewBox="0 0 16 16">



<polygon display="none" points="1,1 3,1 3,7 5,7 5,6 6,6 6,7 6,8 3,8 2,8 2,2 1,2   "/>
<line fill="#FFFFFF" stroke="#000000" stroke-miterlimit="10" x1="7" y1="1.5" x2="15" y2="1.5"/>
<line fill="#FFFFFF" stroke="#000000" stroke-miterlimit="10" x1="7" y1="3.5" x2="15" y2="3.5"/>
<line fill="#FFFFFF" stroke="#000000" stroke-miterlimit="10" x1="7" y1="5.5" x2="15" y2="5.5"/>
<line fill="#FFFFFF" stroke="#000000" stroke-miterlimit="10" x1="7" y1="7.5" x2="15" y2="7.5"/>
<line fill="#FFFFFF" stroke="#000000" stroke-miterlimit="10" x1="1" y1="9.542" x2="15" y2="9.542"/>
<line fill="#FFFFFF" stroke="#000000" stroke-miterlimit="10" x1="1" y1="11.5" x2="15" y2="11.5"/>
<line fill="#FFFFFF" stroke="#000000" stroke-miterlimit="10" x1="1" y1="13.5" x2="15" y2="13.5"/>


{% set letter = ['d', 'r'] | random() | string() %}

{% if letter == 'd' %}
  <rect x="5" y="2" display="inline" width="1" height="2"/>
  <rect x="3" y="4" display="inline" width="2" height="1"/>
  <rect x="4" y="5" display="inline" width="1" height="1"/>
  <rect x="5" y="6" display="inline" width="1" height="1"/>
  <rect x="5" y="7" display="inline" width="1" height="1"/>
  <polygon display="inline" points="1,8 4,8 4,7 3,7 3,2 5,2 5,1 1,1 1,2 2,2 2,7 1,7   "/>

{% elif letter == 'r' %}
  <rect x="5" y="2" display="inline" width="1" height="5"/>
  <polygon display="inline" points="1,8 5,8 5,7 3,7 3,2 5,2 5,1 1,1 1,2 2,2 2,7 1,7   "/>

{% endif %}

</svg>