<svg version="1.1" xmlns="http://www.w3.org/2000/svg" xmlns:xlink="http://www.w3.org/1999/xlink" viewBox="0 0 16 16">
<circle fill="#B0DDFF" cx="7.984" cy="7.984" r="7.987"/>

    <path fill-rule="evenodd" clip-rule="evenodd" d="M12.75,2.766c0.119,0.12,0.239,0.24,0.358,0.359
      c0.02,0.12,0.073,0.239,0.145,0.36c-0.111,1.231-2.124,2.465-3.124,3.697c0.023,2.216,0.313,4.429,0.395,6.644
      c-0.264,0.264-0.526,0.527-0.79,0.791C9.188,12.82,8.636,11.025,8.082,9.23c-0.719,0.719-1.437,1.436-2.155,2.154
      c-0.075,0.479,0.117,0.957,0.144,1.438c-0.042,0.477,0.448,0.957-0.216,1.436c-0.036-0.037-0.071-0.072-0.108-0.107
      c-0.485-0.791-1.132-1.58-1.652-2.371c-0.79-0.52-1.579-1.166-2.37-1.652c-0.036-0.035-0.072-0.07-0.108-0.107
      C1.75,9.889,1.882,9.756,2.013,9.625c0.826,0.148,1.652,0.328,2.478,0.324c0.683-0.73,1.557-1.461,2.119-2.192
      C4.862,7.246,2.923,6.693,1.295,6.105C1.546,5.854,1.798,5.603,2.05,5.352c2.214,0.081,4.429,0.372,6.643,0.395
      c1.078-1,2.154-2.32,3.231-3.087C12.199,2.623,12.475,2.641,12.75,2.766z"/>
</svg>