<svg version="1.1" xmlns="http://www.w3.org/2000/svg" xmlns:xlink="http://www.w3.org/1999/xlink" viewBox="0 0 16 16">

<rect fill-rule="evenodd" clip-rule="evenodd" fill="#1AB7EA" width="16" height="16"/>
<path fill-rule="evenodd" clip-rule="evenodd" fill="#FFFFFF" d="M11.795,2.934c-1.59-0.051-2.666,0.852-3.229,2.714 c0.291-0.126,0.574-0.19,0.849-0.19c0.583,0,0.84,0.331,0.771,0.991c-0.034,0.4-0.291,0.982-0.771,1.746 c-0.48,0.765-0.841,1.147-1.082,1.147c-0.309,0-0.592-0.589-0.849-1.768C7.396,7.229,7.242,6.345,7.02,4.924 C6.813,3.607,6.264,2.992,5.372,3.079C4.994,3.114,4.428,3.46,3.673,4.117C3.124,4.62,2.565,5.121,2,5.622l0.539,0.701 c0.514-0.362,0.814-0.544,0.9-0.544c0.394,0,0.762,0.623,1.105,1.866c0.308,1.142,0.617,2.281,0.925,3.422 c0.462,1.245,1.028,1.867,1.696,1.867c1.08,0,2.398-1.021,3.958-3.064c1.508-1.957,2.288-3.498,2.339-4.624 C13.529,3.74,12.974,2.969,11.795,2.934z"/>
</svg>