<svg version="1.1" xmlns="http://www.w3.org/2000/svg" xmlns:xlink="http://www.w3.org/1999/xlink" viewBox="0 0 16 16">
  <polygon points="
  7,14
  7,9
  6,9
  6,10
  4,10
  4,9
  6,9
  6,8
  5,8
  5,7
  4,7
  4,8
  2,8
  2,7
  4,7
  4,6
  2,6
  2,5
  4,5
  4,4
  3,4
  3,3
  4,3
  4,4
  5,4
  5,6
  6,6
  6,7
  7,7
  7,4
  6,4
  6,3
  7,3
  7,4
  8,4
  8,3
  9,3
  9,4
  8,4
  8,10
  9,10
  9,9
  10,9
  10,8
  9,8
  9,6
  10,6
  10,8
  11,8
  11,7
  12,7
  12,6
  11,6
  11,4
  12,4
  12,3
  13,3
  13,4
  12,4
  12,6
  13,6
  13,7
  14,7
  14,8
  13,8
  13,7
  12,7
  12,8
  11,8
  11,9
  13,9
  13,10
  14,10
  14,11
  13,11
  13,10
  10,10
  10,11
  9,11
  9,14"/>
  <rect x="0" y="1" fill="#FEDF44" width="9" height="1"/>
<rect x="8" y="1" fill="#FBDC43" width="2" height="1"/>
<rect x="9" y="1" fill="#F4D440" width="2" height="1"/>
<rect x="10" y="1" fill="#EBC93C" width="2" height="1"/>
<rect x="11" y="1" fill="#E1BE38" width="2" height="1"/>
<rect x="12" y="1" fill="#D6B233" width="2" height="1"/>
<rect x="13" y="1" fill="#CCA72F" width="2" height="1"/>
<rect x="14" y="1" fill="#C29C2C" width="2" height="1"/>
<rect x="15" y="1" fill="#BB932B" width="1" height="2"/>
<rect x="15" y="2" fill="#B38C29" width="1" height="2"/>
<rect x="15" y="3" fill="#B89432" width="1" height="2"/>
<rect x="15" y="4" fill="#EAD56D" width="1" height="2"/>
<rect x="15" y="5" fill="#F4E27A" width="1" height="2"/>
<rect x="15" y="6" fill="#C2A13E" width="1" height="2"/>
<rect x="15" y="7" fill="#B48F2F" width="1" height="2"/>
<rect x="15" y="8" fill="#B48F2F" width="1" height="2"/>
<rect x="15" y="9" fill="#B48F2F" width="1" height="2"/>
<rect x="15" y="10" fill="#B48F2F" width="1" height="2"/>
<rect x="15" y="11" fill="#B48F2F" width="1" height="2"/>
<rect x="15" y="12" fill="#B48F2F" width="1" height="2"/>
<rect x="15" y="13" fill="#B48F2F" width="1" height="2"/>
<rect x="14" y="14" fill="#BE9B39" width="2" height="1"/>
<rect x="4" y="14" fill="#B48F2F" width="11" height="1"/>
<rect x="2" y="14" fill="#C7A844" width="2" height="1"/>
<rect x="1" y="14" fill="#EDDB72" width="2" height="1"/>
<rect x="0" y="14" fill="#F8E87F" width="2" height="1"/>
<rect x="0" y="14" fill="#D9C05A" width="2" height="1"/>
<rect y="13" fill="#B69330" width="1" height="2"/>
<rect y="12" fill="#B48D29" width="1" height="2"/>
<rect y="11" fill="#BB952B" width="1" height="2"/>
<rect y="10" fill="#C6A12D" width="1" height="2"/>
<rect y="9" fill="#D5B032" width="1" height="2"/>
<rect y="8" fill="#E3C138" width="1" height="2"/>
<rect y="7" fill="#F0CF3E" width="1" height="2"/>
<rect y="6" fill="#FADB42" width="1" height="2"/>
<rect y="5" fill="#FEDF44" width="1" height="2"/>
<rect y="4" fill="#FEDE44" width="1" height="2"/>
<rect y="3" fill="#FEDF44" width="1" height="2"/>
<rect y="2" fill="#FEDE44" width="1" height="2"/>
<rect y="1" fill="#FEDF44" width="1" height="2"/>
</svg>